<mxfile host="65bd71144e">
    <diagram name="Superstore ERD - Full Chen" id="zoyzROA5LSDiBvYz97lU">
        <mxGraphModel dx="1195" dy="1644" grid="1" gridSize="10" guides="1" tooltips="1" connect="1" arrows="1" fold="1" page="1" pageScale="1" pageWidth="827" pageHeight="1169" background="#FFFFFF" math="0" shadow="0">
            <root>
                <mxCell id="0"/>
                <mxCell id="1" parent="0"/>
                <mxCell id="417FQd4-h_4F8wgchHbW-30" value="Cliente" style="shape=rectangle;fillColor=#dae8fc;fontSize=15;fontFamily=Century Gothic;fontStyle=1;shadow=1;strokeColor=#6c8ebf;gradientColor=#7ea6e0;" parent="1" vertex="1">
                    <mxGeometry x="-100" y="80" width="100" height="40" as="geometry"/>
                </mxCell>
                <mxCell id="417FQd4-h_4F8wgchHbW-31" value="Pedido" style="shape=rectangle;fillColor=#dae8fc;fontSize=15;fontFamily=Century Gothic;fontStyle=1;shadow=1;strokeColor=#6c8ebf;gradientColor=#7ea6e0;" parent="1" vertex="1">
                    <mxGeometry x="190" y="80" width="100" height="40" as="geometry"/>
                </mxCell>
                <mxCell id="417FQd4-h_4F8wgchHbW-32" value="Producto" style="shape=rectangle;fillColor=#dae8fc;fontSize=15;fontFamily=Century Gothic;fontStyle=1;shadow=1;strokeColor=#6c8ebf;gradientColor=#7ea6e0;" parent="1" vertex="1">
                    <mxGeometry x="-90" y="270" width="100" height="40" as="geometry"/>
                </mxCell>
                <mxCell id="417FQd4-h_4F8wgchHbW-33" value="Detalle Pedido" style="shape=rectangle;fillColor=#dae8fc;fontSize=15;fontFamily=Century Gothic;fontStyle=1;shadow=1;strokeColor=#6c8ebf;gradientColor=#7ea6e0;" parent="1" vertex="1">
                    <mxGeometry x="180" y="270" width="120" height="40" as="geometry"/>
                </mxCell>
                <mxCell id="417FQd4-h_4F8wgchHbW-34" value="ordena" style="shape=rhombus;fillColor=#d0cee2;fontSize=12;fontFamily=Century Gothic;fontStyle=2;strokeColor=#56517e;" parent="1" vertex="1">
                    <mxGeometry x="60" y="80" width="70" height="40" as="geometry"/>
                </mxCell>
                <mxCell id="W75RcuN1IC3OnZ8BQ4gB-1" style="rounded=0;orthogonalLoop=1;jettySize=auto;html=1;entryX=0.5;entryY=0;entryDx=0;entryDy=0;endArrow=none;startFill=0;" parent="1" source="417FQd4-h_4F8wgchHbW-35" target="417FQd4-h_4F8wgchHbW-33" edge="1">
                    <mxGeometry relative="1" as="geometry"/>
                </mxCell>
                <mxCell id="417FQd4-h_4F8wgchHbW-35" value="contiene" style="shape=rhombus;fillColor=#d0cee2;fontSize=12;fontFamily=Century Gothic;fontStyle=2;strokeColor=#56517e;" parent="1" vertex="1">
                    <mxGeometry x="200" y="185" width="80" height="40" as="geometry"/>
                </mxCell>
                <mxCell id="W75RcuN1IC3OnZ8BQ4gB-2" style="rounded=0;orthogonalLoop=1;jettySize=auto;html=1;entryX=0;entryY=0.5;entryDx=0;entryDy=0;endArrow=none;startFill=0;" parent="1" source="417FQd4-h_4F8wgchHbW-36" target="417FQd4-h_4F8wgchHbW-33" edge="1">
                    <mxGeometry relative="1" as="geometry"/>
                </mxCell>
                <mxCell id="417FQd4-h_4F8wgchHbW-36" value="describe" style="shape=rhombus;fillColor=#d0cee2;fontSize=12;fontFamily=Century Gothic;fontStyle=2;strokeColor=#56517e;" parent="1" vertex="1">
                    <mxGeometry x="70" y="270" width="80" height="40" as="geometry"/>
                </mxCell>
                <mxCell id="417FQd4-h_4F8wgchHbW-37" value="1:N" style="endArrow=none;fontSize=12;fontFamily=Century Gothic;" parent="1" source="417FQd4-h_4F8wgchHbW-30" target="417FQd4-h_4F8wgchHbW-34" edge="1">
                    <mxGeometry relative="1" as="geometry"/>
                </mxCell>
                <mxCell id="417FQd4-h_4F8wgchHbW-38" value="1:1" style="endArrow=none;fontSize=12;fontFamily=Century Gothic;" parent="1" source="417FQd4-h_4F8wgchHbW-31" target="417FQd4-h_4F8wgchHbW-34" edge="1">
                    <mxGeometry relative="1" as="geometry"/>
                </mxCell>
                <mxCell id="417FQd4-h_4F8wgchHbW-39" value="1:N" style="endArrow=none;fontSize=12;fontFamily=Century Gothic;" parent="1" source="417FQd4-h_4F8wgchHbW-31" target="417FQd4-h_4F8wgchHbW-35" edge="1">
                    <mxGeometry relative="1" as="geometry"/>
                </mxCell>
                <mxCell id="417FQd4-h_4F8wgchHbW-41" value="1:N" style="endArrow=none;fontSize=12;fontFamily=Century Gothic;" parent="1" source="417FQd4-h_4F8wgchHbW-32" target="417FQd4-h_4F8wgchHbW-36" edge="1">
                    <mxGeometry relative="1" as="geometry"/>
                </mxCell>
                <mxCell id="417FQd4-h_4F8wgchHbW-43" value="Cliente ID" style="ellipse;fontFamily=Century Gothic;fillColor=#dae8fc;strokeColor=#6c8ebf;" parent="1" vertex="1">
                    <mxGeometry x="-115" y="20" width="135" height="30" as="geometry"/>
                </mxCell>
                <mxCell id="417FQd4-h_4F8wgchHbW-44" style="endArrow=none;fontFamily=Century Gothic;" parent="1" source="417FQd4-h_4F8wgchHbW-43" target="417FQd4-h_4F8wgchHbW-30" edge="1">
                    <mxGeometry relative="1" as="geometry"/>
                </mxCell>
                <mxCell id="417FQd4-h_4F8wgchHbW-45" value="Nombre Cliente" style="ellipse;fontFamily=Century Gothic;fillColor=#dae8fc;strokeColor=#6c8ebf;" parent="1" vertex="1">
                    <mxGeometry x="-245" y="30" width="130" height="30" as="geometry"/>
                </mxCell>
                <mxCell id="417FQd4-h_4F8wgchHbW-46" style="endArrow=none;fontFamily=Century Gothic;" parent="1" source="417FQd4-h_4F8wgchHbW-45" target="417FQd4-h_4F8wgchHbW-30" edge="1">
                    <mxGeometry relative="1" as="geometry"/>
                </mxCell>
                <mxCell id="417FQd4-h_4F8wgchHbW-47" value="Segmento" style="ellipse;fontFamily=Century Gothic;fillColor=#dae8fc;strokeColor=#6c8ebf;" parent="1" vertex="1">
                    <mxGeometry x="-270" y="70" width="120" height="30" as="geometry"/>
                </mxCell>
                <mxCell id="417FQd4-h_4F8wgchHbW-48" style="endArrow=none;fontFamily=Century Gothic;" parent="1" source="417FQd4-h_4F8wgchHbW-47" target="417FQd4-h_4F8wgchHbW-30" edge="1">
                    <mxGeometry relative="1" as="geometry"/>
                </mxCell>
                <mxCell id="417FQd4-h_4F8wgchHbW-49" value="País" style="ellipse;fontFamily=Century Gothic;fillColor=#dae8fc;strokeColor=#6c8ebf;" parent="1" vertex="1">
                    <mxGeometry x="-250" y="110" width="80" height="30" as="geometry"/>
                </mxCell>
                <mxCell id="417FQd4-h_4F8wgchHbW-50" style="endArrow=none;fontFamily=Century Gothic;" parent="1" source="417FQd4-h_4F8wgchHbW-49" target="417FQd4-h_4F8wgchHbW-30" edge="1">
                    <mxGeometry relative="1" as="geometry"/>
                </mxCell>
                <mxCell id="417FQd4-h_4F8wgchHbW-51" value="Ciudad" style="ellipse;fontFamily=Century Gothic;fillColor=#dae8fc;strokeColor=#6c8ebf;" parent="1" vertex="1">
                    <mxGeometry x="-255" y="150" width="90" height="30" as="geometry"/>
                </mxCell>
                <mxCell id="417FQd4-h_4F8wgchHbW-52" style="endArrow=none;fontFamily=Century Gothic;" parent="1" source="417FQd4-h_4F8wgchHbW-51" target="417FQd4-h_4F8wgchHbW-30" edge="1">
                    <mxGeometry relative="1" as="geometry"/>
                </mxCell>
                <mxCell id="417FQd4-h_4F8wgchHbW-53" value="Estado" style="ellipse;fontFamily=Century Gothic;fillColor=#dae8fc;strokeColor=#6c8ebf;" parent="1" vertex="1">
                    <mxGeometry x="-160" y="150" width="95" height="30" as="geometry"/>
                </mxCell>
                <mxCell id="417FQd4-h_4F8wgchHbW-54" style="endArrow=none;fontFamily=Century Gothic;" parent="1" source="417FQd4-h_4F8wgchHbW-53" target="417FQd4-h_4F8wgchHbW-30" edge="1">
                    <mxGeometry relative="1" as="geometry"/>
                </mxCell>
                <mxCell id="417FQd4-h_4F8wgchHbW-55" value="Código Postal" style="ellipse;fontFamily=Century Gothic;fillColor=#dae8fc;strokeColor=#6c8ebf;" parent="1" vertex="1">
                    <mxGeometry x="-107.5" y="179" width="115" height="30" as="geometry"/>
                </mxCell>
                <mxCell id="417FQd4-h_4F8wgchHbW-56" style="endArrow=none;fontFamily=Century Gothic;" parent="1" source="417FQd4-h_4F8wgchHbW-55" target="417FQd4-h_4F8wgchHbW-30" edge="1">
                    <mxGeometry relative="1" as="geometry"/>
                </mxCell>
                <mxCell id="417FQd4-h_4F8wgchHbW-57" value="Área" style="ellipse;fontFamily=Century Gothic;fillColor=#dae8fc;strokeColor=#6c8ebf;" parent="1" vertex="1">
                    <mxGeometry x="-20" y="150" width="90" height="30" as="geometry"/>
                </mxCell>
                <mxCell id="417FQd4-h_4F8wgchHbW-58" style="endArrow=none;fontFamily=Century Gothic;" parent="1" source="417FQd4-h_4F8wgchHbW-57" target="417FQd4-h_4F8wgchHbW-30" edge="1">
                    <mxGeometry relative="1" as="geometry"/>
                </mxCell>
                <mxCell id="W75RcuN1IC3OnZ8BQ4gB-41" style="edgeStyle=orthogonalEdgeStyle;rounded=0;orthogonalLoop=1;jettySize=auto;html=1;entryX=0;entryY=0.5;entryDx=0;entryDy=0;curved=1;endArrow=none;startFill=0;exitX=1;exitY=0.5;exitDx=0;exitDy=0;" parent="1" source="417FQd4-h_4F8wgchHbW-59" target="W75RcuN1IC3OnZ8BQ4gB-15" edge="1">
                    <mxGeometry relative="1" as="geometry">
                        <Array as="points">
                            <mxPoint x="460" y="20"/>
                            <mxPoint x="460" y="45"/>
                        </Array>
                    </mxGeometry>
                </mxCell>
                <mxCell id="417FQd4-h_4F8wgchHbW-59" value="Pedido ID" style="ellipse;fontFamily=Century Gothic;fillColor=#dae8fc;strokeColor=#6c8ebf;" parent="1" vertex="1">
                    <mxGeometry x="175" y="5" width="130" height="30" as="geometry"/>
                </mxCell>
                <mxCell id="417FQd4-h_4F8wgchHbW-60" style="endArrow=none;fontFamily=Century Gothic;" parent="1" source="417FQd4-h_4F8wgchHbW-59" target="417FQd4-h_4F8wgchHbW-31" edge="1">
                    <mxGeometry relative="1" as="geometry"/>
                </mxCell>
                <mxCell id="W75RcuN1IC3OnZ8BQ4gB-18" style="edgeStyle=orthogonalEdgeStyle;rounded=0;orthogonalLoop=1;jettySize=auto;html=1;entryX=0;entryY=0.5;entryDx=0;entryDy=0;curved=1;endArrow=none;startFill=0;" parent="1" source="417FQd4-h_4F8wgchHbW-61" target="W75RcuN1IC3OnZ8BQ4gB-16" edge="1">
                    <mxGeometry relative="1" as="geometry">
                        <Array as="points">
                            <mxPoint x="480" y="115"/>
                            <mxPoint x="480" y="155"/>
                        </Array>
                    </mxGeometry>
                </mxCell>
                <mxCell id="417FQd4-h_4F8wgchHbW-61" value="Fecha - Pedido" style="ellipse;fontFamily=Century Gothic;fillColor=#dae8fc;strokeColor=#6c8ebf;" parent="1" vertex="1">
                    <mxGeometry x="340" y="100" width="130" height="30" as="geometry"/>
                </mxCell>
                <mxCell id="417FQd4-h_4F8wgchHbW-62" style="endArrow=none;fontFamily=Century Gothic;" parent="1" source="417FQd4-h_4F8wgchHbW-61" target="417FQd4-h_4F8wgchHbW-31" edge="1">
                    <mxGeometry relative="1" as="geometry"/>
                </mxCell>
                <mxCell id="W75RcuN1IC3OnZ8BQ4gB-17" style="rounded=0;orthogonalLoop=1;jettySize=auto;html=1;entryX=0;entryY=0.5;entryDx=0;entryDy=0;endArrow=none;startFill=0;" parent="1" source="417FQd4-h_4F8wgchHbW-63" target="W75RcuN1IC3OnZ8BQ4gB-16" edge="1">
                    <mxGeometry relative="1" as="geometry"/>
                </mxCell>
                <mxCell id="417FQd4-h_4F8wgchHbW-63" value="Fecha Envío" style="ellipse;fontFamily=Century Gothic;fillColor=#dae8fc;strokeColor=#6c8ebf;" parent="1" vertex="1">
                    <mxGeometry x="320" y="140" width="130" height="30" as="geometry"/>
                </mxCell>
                <mxCell id="417FQd4-h_4F8wgchHbW-64" style="endArrow=none;fontFamily=Century Gothic;" parent="1" source="417FQd4-h_4F8wgchHbW-63" target="417FQd4-h_4F8wgchHbW-31" edge="1">
                    <mxGeometry relative="1" as="geometry"/>
                </mxCell>
                <mxCell id="W75RcuN1IC3OnZ8BQ4gB-42" style="edgeStyle=orthogonalEdgeStyle;rounded=0;orthogonalLoop=1;jettySize=auto;html=1;entryX=0;entryY=0.5;entryDx=0;entryDy=0;curved=1;endArrow=none;startFill=0;" parent="1" source="417FQd4-h_4F8wgchHbW-65" target="W75RcuN1IC3OnZ8BQ4gB-15" edge="1">
                    <mxGeometry relative="1" as="geometry">
                        <Array as="points">
                            <mxPoint x="425" y="60"/>
                            <mxPoint x="460" y="60"/>
                            <mxPoint x="460" y="45"/>
                        </Array>
                    </mxGeometry>
                </mxCell>
                <mxCell id="417FQd4-h_4F8wgchHbW-65" value="Tipo Envío" style="ellipse;fontFamily=Century Gothic;fillColor=#dae8fc;strokeColor=#6c8ebf;" parent="1" vertex="1">
                    <mxGeometry x="360" y="62" width="130" height="30" as="geometry"/>
                </mxCell>
                <mxCell id="417FQd4-h_4F8wgchHbW-66" style="endArrow=none;fontFamily=Century Gothic;" parent="1" source="417FQd4-h_4F8wgchHbW-65" target="417FQd4-h_4F8wgchHbW-31" edge="1">
                    <mxGeometry relative="1" as="geometry"/>
                </mxCell>
                <mxCell id="W75RcuN1IC3OnZ8BQ4gB-20" style="rounded=0;orthogonalLoop=1;jettySize=auto;html=1;entryX=0;entryY=0.5;entryDx=0;entryDy=0;endArrow=none;startFill=0;" parent="1" source="417FQd4-h_4F8wgchHbW-67" target="W75RcuN1IC3OnZ8BQ4gB-15" edge="1">
                    <mxGeometry relative="1" as="geometry"/>
                </mxCell>
                <mxCell id="417FQd4-h_4F8wgchHbW-67" value="Cliente ID" style="ellipse;fontFamily=Century Gothic;fillColor=#dae8fc;strokeColor=#6c8ebf;" parent="1" vertex="1">
                    <mxGeometry x="294" y="27" width="130" height="30" as="geometry"/>
                </mxCell>
                <mxCell id="417FQd4-h_4F8wgchHbW-68" style="endArrow=none;fontFamily=Century Gothic;" parent="1" source="417FQd4-h_4F8wgchHbW-67" target="417FQd4-h_4F8wgchHbW-31" edge="1">
                    <mxGeometry relative="1" as="geometry"/>
                </mxCell>
                <mxCell id="417FQd4-h_4F8wgchHbW-69" value="Producto ID" style="ellipse;fontFamily=Century Gothic;fillColor=#dae8fc;strokeColor=#6c8ebf;" parent="1" vertex="1">
                    <mxGeometry x="-105" y="225" width="130" height="30" as="geometry"/>
                </mxCell>
                <mxCell id="417FQd4-h_4F8wgchHbW-70" style="endArrow=none;fontFamily=Century Gothic;" parent="1" source="417FQd4-h_4F8wgchHbW-69" target="417FQd4-h_4F8wgchHbW-32" edge="1">
                    <mxGeometry relative="1" as="geometry"/>
                </mxCell>
                <mxCell id="417FQd4-h_4F8wgchHbW-71" value="Nombre Producto" style="ellipse;fontFamily=Century Gothic;fillColor=#dae8fc;strokeColor=#6c8ebf;" parent="1" vertex="1">
                    <mxGeometry x="-245" y="255" width="130" height="30" as="geometry"/>
                </mxCell>
                <mxCell id="417FQd4-h_4F8wgchHbW-72" style="endArrow=none;fontFamily=Century Gothic;" parent="1" source="417FQd4-h_4F8wgchHbW-71" target="417FQd4-h_4F8wgchHbW-32" edge="1">
                    <mxGeometry relative="1" as="geometry"/>
                </mxCell>
                <mxCell id="417FQd4-h_4F8wgchHbW-73" value="Categoría" style="ellipse;fontFamily=Century Gothic;fillColor=#dae8fc;strokeColor=#6c8ebf;" parent="1" vertex="1">
                    <mxGeometry x="-245" y="310" width="130" height="30" as="geometry"/>
                </mxCell>
                <mxCell id="417FQd4-h_4F8wgchHbW-74" style="endArrow=none;fontFamily=Century Gothic;" parent="1" source="417FQd4-h_4F8wgchHbW-73" target="417FQd4-h_4F8wgchHbW-32" edge="1">
                    <mxGeometry relative="1" as="geometry"/>
                </mxCell>
                <mxCell id="417FQd4-h_4F8wgchHbW-75" value="Sub-categoría" style="ellipse;fontFamily=Century Gothic;fillColor=#dae8fc;strokeColor=#6c8ebf;" parent="1" vertex="1">
                    <mxGeometry x="-105" y="334" width="130" height="30" as="geometry"/>
                </mxCell>
                <mxCell id="417FQd4-h_4F8wgchHbW-76" style="endArrow=none;fontFamily=Century Gothic;" parent="1" source="417FQd4-h_4F8wgchHbW-75" target="417FQd4-h_4F8wgchHbW-32" edge="1">
                    <mxGeometry relative="1" as="geometry"/>
                </mxCell>
                <mxCell id="W75RcuN1IC3OnZ8BQ4gB-38" style="edgeStyle=orthogonalEdgeStyle;rounded=0;orthogonalLoop=1;jettySize=auto;html=1;entryX=0;entryY=0.5;entryDx=0;entryDy=0;curved=1;endArrow=none;startFill=0;" parent="1" source="417FQd4-h_4F8wgchHbW-77" target="W75RcuN1IC3OnZ8BQ4gB-37" edge="1">
                    <mxGeometry relative="1" as="geometry">
                        <Array as="points">
                            <mxPoint x="470" y="224"/>
                            <mxPoint x="470" y="265"/>
                        </Array>
                    </mxGeometry>
                </mxCell>
                <mxCell id="417FQd4-h_4F8wgchHbW-77" value="Detalle Pedido ID" style="ellipse;fontFamily=Century Gothic;fillColor=#dae8fc;strokeColor=#6c8ebf;" parent="1" vertex="1">
                    <mxGeometry x="290" y="209" width="130" height="30" as="geometry"/>
                </mxCell>
                <mxCell id="417FQd4-h_4F8wgchHbW-78" style="endArrow=none;fontFamily=Century Gothic;" parent="1" source="417FQd4-h_4F8wgchHbW-77" target="417FQd4-h_4F8wgchHbW-33" edge="1">
                    <mxGeometry relative="1" as="geometry"/>
                </mxCell>
                <mxCell id="W75RcuN1IC3OnZ8BQ4gB-39" style="edgeStyle=entityRelationEdgeStyle;rounded=0;orthogonalLoop=1;jettySize=auto;html=1;entryX=0;entryY=0.5;entryDx=0;entryDy=0;endArrow=none;startFill=0;" parent="1" source="417FQd4-h_4F8wgchHbW-79" target="W75RcuN1IC3OnZ8BQ4gB-37" edge="1">
                    <mxGeometry relative="1" as="geometry"/>
                </mxCell>
                <mxCell id="417FQd4-h_4F8wgchHbW-79" value="Pedido ID" style="ellipse;fontFamily=Century Gothic;fillColor=#dae8fc;strokeColor=#6c8ebf;" parent="1" vertex="1">
                    <mxGeometry x="330" y="250" width="110" height="30" as="geometry"/>
                </mxCell>
                <mxCell id="417FQd4-h_4F8wgchHbW-80" style="endArrow=none;fontFamily=Century Gothic;" parent="1" source="417FQd4-h_4F8wgchHbW-79" target="417FQd4-h_4F8wgchHbW-33" edge="1">
                    <mxGeometry relative="1" as="geometry"/>
                </mxCell>
                <mxCell id="W75RcuN1IC3OnZ8BQ4gB-40" style="edgeStyle=orthogonalEdgeStyle;rounded=0;orthogonalLoop=1;jettySize=auto;html=1;entryX=0;entryY=0.5;entryDx=0;entryDy=0;curved=1;endArrow=none;startFill=0;" parent="1" source="417FQd4-h_4F8wgchHbW-81" target="W75RcuN1IC3OnZ8BQ4gB-37" edge="1">
                    <mxGeometry relative="1" as="geometry">
                        <Array as="points">
                            <mxPoint x="470" y="305"/>
                            <mxPoint x="470" y="265"/>
                        </Array>
                    </mxGeometry>
                </mxCell>
                <mxCell id="417FQd4-h_4F8wgchHbW-81" value="Producto ID" style="ellipse;fontFamily=Century Gothic;fillColor=#dae8fc;strokeColor=#6c8ebf;" parent="1" vertex="1">
                    <mxGeometry x="330" y="290" width="120" height="30" as="geometry"/>
                </mxCell>
                <mxCell id="417FQd4-h_4F8wgchHbW-82" style="endArrow=none;fontFamily=Century Gothic;" parent="1" source="417FQd4-h_4F8wgchHbW-81" target="417FQd4-h_4F8wgchHbW-33" edge="1">
                    <mxGeometry relative="1" as="geometry"/>
                </mxCell>
                <mxCell id="W75RcuN1IC3OnZ8BQ4gB-36" value="" style="rounded=0;orthogonalLoop=1;jettySize=auto;html=1;entryX=0.5;entryY=0;entryDx=0;entryDy=0;endArrow=none;startFill=0;" parent="1" source="417FQd4-h_4F8wgchHbW-83" target="W75RcuN1IC3OnZ8BQ4gB-35" edge="1">
                    <mxGeometry relative="1" as="geometry"/>
                </mxCell>
                <mxCell id="417FQd4-h_4F8wgchHbW-83" value="Cantidad" style="ellipse;fontFamily=Century Gothic;fillColor=#dae8fc;strokeColor=#6c8ebf;" parent="1" vertex="1">
                    <mxGeometry x="340" y="330" width="100" height="30" as="geometry"/>
                </mxCell>
                <mxCell id="417FQd4-h_4F8wgchHbW-84" style="endArrow=none;fontFamily=Century Gothic;" parent="1" source="417FQd4-h_4F8wgchHbW-83" target="417FQd4-h_4F8wgchHbW-33" edge="1">
                    <mxGeometry relative="1" as="geometry"/>
                </mxCell>
                <mxCell id="W75RcuN1IC3OnZ8BQ4gB-34" style="edgeStyle=orthogonalEdgeStyle;rounded=0;orthogonalLoop=1;jettySize=auto;html=1;entryX=0.5;entryY=0;entryDx=0;entryDy=0;curved=1;endArrow=none;startFill=0;" parent="1" source="417FQd4-h_4F8wgchHbW-85" target="W75RcuN1IC3OnZ8BQ4gB-31" edge="1">
                    <mxGeometry relative="1" as="geometry">
                        <Array as="points">
                            <mxPoint x="298" y="430"/>
                            <mxPoint x="240" y="430"/>
                        </Array>
                    </mxGeometry>
                </mxCell>
                <mxCell id="417FQd4-h_4F8wgchHbW-85" value="Descuento" style="ellipse;fontFamily=Century Gothic;fillColor=#dae8fc;strokeColor=#6c8ebf;" parent="1" vertex="1">
                    <mxGeometry x="250" y="350" width="96" height="30" as="geometry"/>
                </mxCell>
                <mxCell id="417FQd4-h_4F8wgchHbW-86" style="endArrow=none;fontFamily=Century Gothic;" parent="1" source="417FQd4-h_4F8wgchHbW-85" target="417FQd4-h_4F8wgchHbW-33" edge="1">
                    <mxGeometry relative="1" as="geometry"/>
                </mxCell>
                <mxCell id="W75RcuN1IC3OnZ8BQ4gB-33" value="" style="rounded=0;orthogonalLoop=1;jettySize=auto;html=1;entryX=0.5;entryY=0;entryDx=0;entryDy=0;endArrow=none;startFill=0;" parent="1" source="417FQd4-h_4F8wgchHbW-87" target="W75RcuN1IC3OnZ8BQ4gB-31" edge="1">
                    <mxGeometry relative="1" as="geometry"/>
                </mxCell>
                <mxCell id="417FQd4-h_4F8wgchHbW-87" value="Venta" style="ellipse;fontFamily=Century Gothic;fillColor=#dae8fc;strokeColor=#6c8ebf;" parent="1" vertex="1">
                    <mxGeometry x="205" y="380" width="70" height="30" as="geometry"/>
                </mxCell>
                <mxCell id="417FQd4-h_4F8wgchHbW-88" style="endArrow=none;fontFamily=Century Gothic;" parent="1" source="417FQd4-h_4F8wgchHbW-87" target="417FQd4-h_4F8wgchHbW-33" edge="1">
                    <mxGeometry relative="1" as="geometry"/>
                </mxCell>
                <mxCell id="W75RcuN1IC3OnZ8BQ4gB-32" style="edgeStyle=orthogonalEdgeStyle;rounded=0;orthogonalLoop=1;jettySize=auto;html=1;entryX=0.5;entryY=0;entryDx=0;entryDy=0;curved=1;endArrow=none;startFill=0;" parent="1" source="417FQd4-h_4F8wgchHbW-89" target="W75RcuN1IC3OnZ8BQ4gB-31" edge="1">
                    <mxGeometry relative="1" as="geometry">
                        <Array as="points">
                            <mxPoint x="185" y="430"/>
                            <mxPoint x="240" y="430"/>
                        </Array>
                    </mxGeometry>
                </mxCell>
                <mxCell id="417FQd4-h_4F8wgchHbW-89" value="Ganancia" style="ellipse;fontFamily=Century Gothic;fillColor=#dae8fc;strokeColor=#6c8ebf;" parent="1" vertex="1">
                    <mxGeometry x="140" y="350" width="90" height="30" as="geometry"/>
                </mxCell>
                <mxCell id="417FQd4-h_4F8wgchHbW-90" style="endArrow=none;fontFamily=Century Gothic;" parent="1" source="417FQd4-h_4F8wgchHbW-89" target="417FQd4-h_4F8wgchHbW-33" edge="1">
                    <mxGeometry relative="1" as="geometry"/>
                </mxCell>
                <mxCell id="W75RcuN1IC3OnZ8BQ4gB-3" value="String" style="shape=hexagon;perimeter=hexagonPerimeter2;whiteSpace=wrap;html=1;fixedSize=1;fontFamily=Century Gothic;fontSize=12;fillColor=#e1d5e7;strokeColor=#9673a6;" parent="1" vertex="1">
                    <mxGeometry x="-360" y="100" width="60" height="30" as="geometry"/>
                </mxCell>
                <mxCell id="W75RcuN1IC3OnZ8BQ4gB-14" style="rounded=0;orthogonalLoop=1;jettySize=auto;html=1;exitX=0;exitY=0.5;exitDx=0;exitDy=0;exitPerimeter=0;entryX=1;entryY=0.5;entryDx=0;entryDy=0;endArrow=none;startFill=0;" parent="1" source="W75RcuN1IC3OnZ8BQ4gB-12" target="W75RcuN1IC3OnZ8BQ4gB-3" edge="1">
                    <mxGeometry relative="1" as="geometry"/>
                </mxCell>
                <mxCell id="W75RcuN1IC3OnZ8BQ4gB-12" value="" style="strokeWidth=1;html=1;shape=mxgraph.flowchart.annotation_2;align=left;labelPosition=right;pointerEvents=1;" parent="1" vertex="1">
                    <mxGeometry x="-295" y="20" width="39" height="190" as="geometry"/>
                </mxCell>
                <mxCell id="W75RcuN1IC3OnZ8BQ4gB-15" value="&lt;font style=&quot;font-size: 12px;&quot;&gt;String&lt;/font&gt;" style="shape=hexagon;perimeter=hexagonPerimeter2;whiteSpace=wrap;html=1;fixedSize=1;fontFamily=Century Gothic;fontSize=13;fillColor=#e1d5e7;strokeColor=#9673a6;" parent="1" vertex="1">
                    <mxGeometry x="486" y="30" width="64" height="30" as="geometry"/>
                </mxCell>
                <mxCell id="W75RcuN1IC3OnZ8BQ4gB-16" value="Date" style="shape=hexagon;perimeter=hexagonPerimeter2;whiteSpace=wrap;html=1;fixedSize=1;fontFamily=Century Gothic;fontSize=12;fillColor=#e1d5e7;strokeColor=#9673a6;" parent="1" vertex="1">
                    <mxGeometry x="490" y="140" width="60" height="30" as="geometry"/>
                </mxCell>
                <mxCell id="W75RcuN1IC3OnZ8BQ4gB-28" value="String" style="shape=hexagon;perimeter=hexagonPerimeter2;whiteSpace=wrap;html=1;fixedSize=1;fontFamily=Century Gothic;fontSize=12;fillColor=#e1d5e7;strokeColor=#9673a6;" parent="1" vertex="1">
                    <mxGeometry x="-360" y="280" width="61" height="30" as="geometry"/>
                </mxCell>
                <mxCell id="W75RcuN1IC3OnZ8BQ4gB-29" style="rounded=0;orthogonalLoop=1;jettySize=auto;html=1;exitX=0;exitY=0.5;exitDx=0;exitDy=0;exitPerimeter=0;entryX=1;entryY=0.5;entryDx=0;entryDy=0;endArrow=none;startFill=0;" parent="1" source="W75RcuN1IC3OnZ8BQ4gB-30" target="W75RcuN1IC3OnZ8BQ4gB-28" edge="1">
                    <mxGeometry relative="1" as="geometry"/>
                </mxCell>
                <mxCell id="W75RcuN1IC3OnZ8BQ4gB-30" value="" style="strokeWidth=1;html=1;shape=mxgraph.flowchart.annotation_2;align=left;labelPosition=right;pointerEvents=1;" parent="1" vertex="1">
                    <mxGeometry x="-294" y="220" width="39" height="150" as="geometry"/>
                </mxCell>
                <mxCell id="W75RcuN1IC3OnZ8BQ4gB-31" value="Float" style="shape=hexagon;perimeter=hexagonPerimeter2;whiteSpace=wrap;html=1;fixedSize=1;fontFamily=Century Gothic;fontSize=12;fillColor=#e1d5e7;strokeColor=#9673a6;" parent="1" vertex="1">
                    <mxGeometry x="210" y="440" width="60" height="30" as="geometry"/>
                </mxCell>
                <mxCell id="W75RcuN1IC3OnZ8BQ4gB-35" value="Int" style="shape=hexagon;perimeter=hexagonPerimeter2;whiteSpace=wrap;html=1;fixedSize=1;fontFamily=Century Gothic;fontSize=12;fillColor=#e1d5e7;strokeColor=#9673a6;" parent="1" vertex="1">
                    <mxGeometry x="360" y="380" width="60" height="30" as="geometry"/>
                </mxCell>
                <mxCell id="W75RcuN1IC3OnZ8BQ4gB-37" value="String" style="shape=hexagon;perimeter=hexagonPerimeter2;whiteSpace=wrap;html=1;fixedSize=1;fontFamily=Century Gothic;fontSize=12;fillColor=#e1d5e7;strokeColor=#9673a6;" parent="1" vertex="1">
                    <mxGeometry x="486" y="250" width="64" height="30" as="geometry"/>
                </mxCell>
                <mxCell id="xjMF-SFNWBUAlNa_5Ipm-1" value="Diagrama E-R: Tienda en línea" style="text;html=1;align=center;verticalAlign=middle;whiteSpace=wrap;rounded=0;fontFamily=Century Gothic;fontStyle=0;fontSize=21;" parent="1" vertex="1">
                    <mxGeometry x="-105" y="-40" width="425" height="30" as="geometry"/>
                </mxCell>
            </root>
        </mxGraphModel>
    </diagram>
</mxfile>